<?xml version="1.0" encoding="UTF-8"?>
<svg width="20px" height="16px" viewBox="0 0 20 16" version="1.1" xmlns="http://www.w3.org/2000/svg" xmlns:xlink="http://www.w3.org/1999/xlink">
    <!-- Generator: Sketch 61 (89581) - https://sketch.com -->
    <title>音频</title>
    <desc>Created with Sketch.</desc>
    <g id="页面-1" stroke="none" stroke-width="1" fill="none" fill-rule="evenodd">
        <g id="1-2-1首页-设置-视频" transform="translate(-18.000000, -98.000000)" fill="#127BF8">
            <g id="音频" transform="translate(10.000000, 91.000000)">
                <path d="M19.0687991,7.14544682 C19.5357295,6.9259123 20.086647,6.95651366 20.5247421,7.22629858 C20.9649004,7.49415348 21.2313031,7.96321929 21.2294417,8.46697904 L21.2294417,8.46697904 L21.2294417,21.5347125 C21.2304634,22.0341007 20.9684508,22.499539 20.5345778,22.7689518 C20.1007048,23.0383647 19.555041,23.0745934 19.0873429,22.8648717 L19.0873429,22.8648717 L12.7517801,20.0144343 C12.7394975,20.0088767 12.7261114,20.00597 12.7125094,20.0059003 L12.7125094,20.0059003 L9.50833605,20.0059003 C8.67460709,20.0039935 8.00000004,19.3482501 8.00000004,18.5401045 L8.00000004,18.5401045 L8.00000004,11.5801092 C7.99980817,10.7718706 8.67451113,10.1160574 9.50833605,10.1141506 L9.50833605,10.1141506 L12.6830024,10.1141506 C12.6971562,10.1141506 12.7110221,10.111151 12.7237605,10.1052446 L12.7237605,10.1052446 Z M24.7205478,9.96080901 C24.9693662,9.68707102 25.3999047,9.66056224 25.6822844,9.9017456 C27.1403625,11.1467512 28,13.0024352 28,15.000011 C28,16.9975635 27.1403625,18.8532243 25.6822844,20.0982531 C25.3999047,20.3394365 24.9693662,20.3129277 24.7205478,20.0391897 C24.4718492,19.7655913 24.4991252,19.3481478 24.7814809,19.1070807 C25.9450167,18.1135132 26.6372799,16.6193484 26.6372799,15.000011 C26.6372799,13.3806503 25.9450167,11.8864855 24.7814809,10.892918 C24.4991252,10.6518509 24.4718492,10.2345005 24.7205478,9.96080901 Z M22.6859459,11.8919222 C22.9398741,11.6226488 23.3708204,11.6038834 23.6486181,11.8499034 C24.5263437,12.6274244 25.0402934,13.7717897 25.0402934,14.9994948 C25.0402934,16.2278045 24.5257439,17.3727743 23.6471547,18.1502953 C23.3692371,18.3961991 22.9381948,18.3772244 22.6845065,18.107858 C22.4333131,17.8410728 22.4500337,17.4290241 22.7200589,17.1821902 L22.7200589,17.1821902 L22.7282633,17.1747258 L22.7460394,17.1589136 C23.3294146,16.6332492 23.6774054,15.8502637 23.6774054,14.9994948 C23.6774054,14.1406569 23.3227695,13.3507187 22.7293188,12.8250543 C22.4515211,12.5789413 22.4320417,12.1612188 22.6859459,11.8919222 Z"></path>
            </g>
        </g>
    </g>
</svg>