<?xml version="1.0" encoding="UTF-8"?>
<svg width="8px" height="14px" viewBox="0 0 8 14" version="1.1" xmlns="http://www.w3.org/2000/svg" xmlns:xlink="http://www.w3.org/1999/xlink">
    <!-- Generator: Sketch 61 (89581) - https://sketch.com -->
    <title>返回箭头</title>
    <desc>Created with Sketch.</desc>
    <g id="页面-1" stroke="none" stroke-width="1" fill="none" fill-rule="evenodd">
        <g id="0-1登录注册-加入会议" transform="translate(-20.000000, -51.000000)" fill="#999999">
            <path d="M27.2169606,65 C27.0181719,65 26.819284,64.9260917 26.666728,64.7783723 L20.2328685,58.5466446 C20.0839405,58.4022697 20,58.2057642 20,58.0003143 C20,57.7947672 20.0839405,57.5982811 20.2328685,57.4538868 L26.666728,51.2217896 C26.9744173,50.9236675 27.470269,50.9262536 27.7740131,51.2285563 C28.0779753,51.5304117 28.074942,52.0164448 27.7671139,52.3145669 L21.8974242,58.0003143 L27.7671139,63.6856145 C28.074942,63.9837366 28.0779753,64.4697697 27.7740131,64.7716057 C27.620902,64.9238945 27.4190007,65 27.2169606,65" id="返回箭头" transform="translate(24.000000, 58.000000) scale(1, -1) translate(-24.000000, -58.000000) "></path>
        </g>
    </g>
</svg>