<?xml version="1.0" encoding="UTF-8"?>
<svg width="20px" height="20px" viewBox="0 0 20 20" version="1.1" xmlns="http://www.w3.org/2000/svg" xmlns:xlink="http://www.w3.org/1999/xlink">
    <!-- Generator: Sketch 61 (89581) - https://sketch.com -->
    <title>日历</title>
    <desc>Created with Sketch.</desc>
    <g id="页面-1" stroke="none" stroke-width="1" fill="none" fill-rule="evenodd">
        <g id="1-5预定会议" transform="translate(-39.000000, -222.000000)" fill="#999999" stroke="#999999" stroke-width="0.4">
            <g id="开始时间" transform="translate(30.000000, 185.000000)">
                <g id="日期" transform="translate(0.000000, 27.000000)">
                    <path d="M22.7648367,11.0005083 C23.0929984,10.9858557 23.3724859,11.2903391 23.3724859,11.6083675 L23.3724859,11.6083675 L23.3724859,12.4082219 L26.1763451,12.4082219 C26.8150764,12.4137356 27.405813,12.747902 27.7395871,13.2925432 C27.9660965,13.6633917 27.9999617,14.0692606 27.9999617,14.4867609 L27.9999617,14.4867609 L27.9999617,27.1387866 C28.0019857,27.4595843 27.9237141,27.7756741 27.772431,28.0584304 C27.4652088,28.6298844 26.8476183,28.981473 26.2068232,28.9994741 L26.2068232,28.9994741 L11.8243571,28.9994741 C11.1953656,28.9943633 10.6255435,28.6721808 10.2818532,28.1484864 C10.0891692,27.8546273 10,27.4975504 10,27.1496879 L10,27.1496879 L10,14.2712761 C10,13.9677745 10.0696139,13.668427 10.2033048,13.3960938 C10.4891093,12.8047504 11.1227064,12.4386099 11.7669495,12.4092038 C11.8176876,12.4078191 11.8686019,12.4078191 11.9194407,12.4078191 L14.6254478,12.4078191 L14.6254478,11.6083675 C14.6254478,11.2676048 14.9050611,11.0152617 15.2333235,11.0005083 C15.5614853,10.9858557 15.8408721,11.2903391 15.8408721,11.6083675 L15.8408721,11.6083675 L15.8408721,12.4078191 L22.1571623,12.4078191 L22.1571623,11.6083675 C22.1571623,11.2676048 22.4366749,11.0152617 22.7648367,11.0005083 Z M26.6115672,17.7382907 L11.2164813,17.7381428 L11.2164813,26.8614433 C11.2164813,26.9923354 11.2108941,27.1262991 11.2199545,27.257871 C11.2308521,27.310389 11.2451222,27.3622272 11.2626137,27.4129576 C11.2846355,27.4572178 11.3094005,27.4999925 11.3367326,27.5412063 L11.3367326,27.5412063 L11.3944422,27.6050284 C11.3967073,27.6072943 11.4206921,27.6312874 11.4428146,27.6524608 C11.4502894,27.6576471 11.4574622,27.6626572 11.4651383,27.6676673 C11.5040728,27.6930452 11.5443663,27.7162578 11.5859685,27.7370032 C11.6370589,27.7545259 11.6892819,27.7689017 11.7421845,27.7799038 C11.7740216,27.7819682 11.8060853,27.7831263 11.8380231,27.7831263 L11.8380231,27.7831263 L23.1761777,27.7831263 L23.1767818,27.7823459 L26.1768484,27.7823459 C26.2037779,27.7821445 26.2305312,27.7808856 26.2573348,27.7790981 C26.3105393,27.7679953 26.3629385,27.7537203 26.4143561,27.7362227 C26.458601,27.7141933 26.5014616,27.6894198 26.542636,27.6620782 L26.542636,27.6620782 L26.6062599,27.604248 C26.6087012,27.602108 26.6335921,27.5780897 26.6537262,27.5559848 C26.6587598,27.5484822 26.6640702,27.5412063 26.6688772,27.5335274 C26.6943469,27.4946803 26.7175516,27.4543728 26.7380884,27.4127562 C26.75558,27.3616229 26.7699507,27.3095078 26.7810749,27.256587 C26.7830379,27.2254186 26.784397,27.1941495 26.784397,27.1627797 C26.787845,26.6505909 26.784397,26.1382006 26.784397,25.626037 L26.784397,25.626037 L26.784397,17.7393261 C26.6692799,17.7381428 26.5538608,17.7381428 26.4387185,17.7381428 Z M22.9122137,19.6396413 C23.1442349,19.3915278 23.5357941,19.423099 23.7717414,19.6396413 C24.0191904,19.8668332 23.9890143,20.2670877 23.772723,20.4994911 C23.7697783,20.5027389 23.7665317,20.5059866 23.7636877,20.5091337 C23.5627487,20.7306861 23.3551906,20.9461961 23.151005,21.1645007 L23.151005,21.1645007 L21.8878124,22.5160458 L20.4343771,24.0711169 L19.2325182,25.3569515 L18.7291639,25.8955001 C18.4980237,26.1428331 18.1041993,26.1132256 17.8698124,25.8955001 L17.8698124,25.8955001 L17.4748052,25.5289568 L15.7557247,23.9329236 L14.6775399,22.9317586 C14.4285306,22.7007399 14.4615506,22.3071823 14.6775399,22.071934 C14.9050561,21.8239967 15.3036874,21.8555931 15.5368914,22.071934 L15.5368914,22.071934 L15.9309171,22.4386535 L17.6509792,24.0346111 L18.2665059,24.6066694 L18.2665059,24.6066694 L18.4905489,24.3701874 L19.7535653,23.0190956 C20.2381444,22.5008392 20.7226229,21.9825577 21.2071013,21.464251 L21.2071013,21.464251 L22.4088595,20.1783912 C22.5766778,19.9989338 22.7444961,19.8193253 22.9122137,19.6396413 Z M11.9578214,13.6219482 L11.7413791,13.6275153 C11.6887031,13.6384167 11.6366814,13.6526917 11.5857672,13.6701893 C11.5415223,13.6922187 11.4986617,13.7169923 11.4574622,13.7443339 L11.4574622,13.7443339 L11.393662,13.8021641 C11.3914976,13.8039264 11.3673114,13.8279447 11.3463719,13.8504524 C11.3411622,13.8579298 11.3361538,13.8652058 11.3310447,13.8728846 C11.3056505,13.9118325 11.2825466,13.9521399 11.2618335,13.9937313 C11.2442916,14.0447891 11.2299712,14.0969043 11.2189729,14.1498251 C11.2169092,14.1809935 11.2157263,14.2122626 11.2157263,14.2436324 C11.2122783,14.7558212 11.2157263,15.2682114 11.2157263,15.7803751 L11.2157263,15.7803751 L11.2157263,16.5216188 C11.3290817,16.5228021 11.4424119,16.5228021 11.5557421,16.5228021 L26.7839943,16.5228021 L26.7839943,14.5457492 C26.7839943,14.4146557 26.789506,14.2809186 26.7803702,14.1494222 C26.7694725,14.0969043 26.7552024,14.0450912 26.7378871,13.9943356 C26.7157646,13.9501762 26.6909996,13.9073007 26.6638688,13.8659863 C26.6442883,13.8450395 26.6260166,13.8223304 26.6058824,13.8021641 L26.623,13.82 L26.5731965,13.7805963 L26.5731965,13.7805963 L26.522,13.731 L26.475951,13.7031578 L26.475951,13.7031578 L26.4145575,13.6701893 C26.3634167,13.6527924 26.311244,13.6384167 26.2583415,13.6273139 C26.226303,13.6253502 26.1945162,13.6240662 26.1623015,13.6240662 L23.3724859,13.6240662 L23.3724859,14.4458493 C23.3724859,14.7867126 23.0929984,15.0390558 22.7648367,15.0537084 C22.4366749,15.0684618 22.1571623,14.7637014 22.1571623,14.4458493 L22.1571623,14.4458493 L22.1571623,13.6240662 L15.8408721,13.6240662 L15.8408721,14.4458493 C15.8408721,14.7867126 15.5614853,15.0390558 15.2333235,15.0537084 C14.9050611,15.0684618 14.6254478,14.7637014 14.6254478,14.4458493 L14.6254478,14.4458493 L14.6254478,13.6240662 L12.1736597,13.6240662 C12.0311098,13.6240662 11.8847344,13.6172685 11.7413791,13.6275153 Z" id="日历"></path>
                </g>
            </g>
        </g>
    </g>
</svg>