<?xml version="1.0" encoding="UTF-8"?>
<svg width="14px" height="14px" viewBox="0 0 14 14" version="1.1" xmlns="http://www.w3.org/2000/svg" xmlns:xlink="http://www.w3.org/1999/xlink">
    <!-- Generator: Sketch 61 (89581) - https://sketch.com -->
    <title>清除</title>
    <desc>Created with Sketch.</desc>
    <g id="页面-1" stroke="none" stroke-width="1" fill="none" fill-rule="evenodd">
        <g id="0-2登录注册-账号密码登录-交互" transform="translate(-336.000000, -179.000000)" fill="#CCCCCC">
            <g id="手机号码" transform="translate(30.000000, 138.000000)">
                <g id="输入框" transform="translate(0.000000, 38.000000)">
                    <g id="1" transform="translate(17.000000, 0.000000)">
                        <path d="M296,3 C299.865993,3 303,6.13400675 303,10 C303,13.8659932 299.865993,17 296,17 C292.134007,17 289,13.8659932 289,10 C289,6.13400675 292.134007,3 296,3 Z M293.302377,7.3023782 C293.165874,7.43923248 293.165874,7.6607894 293.302377,7.79729367 L295.504961,9.9999125 L293.302377,12.2025313 C293.165874,12.3393856 293.165874,12.5609425 293.302377,12.6974468 C293.370628,12.7660489 293.460229,12.8 293.54983,12.8 C293.639432,12.8 293.729033,12.7660489 293.797284,12.6974468 L295.999869,10.494828 L298.202453,12.6974468 C298.270704,12.7660489 298.360306,12.8 298.449907,12.8 C298.539508,12.8 298.62911,12.7660489 298.697361,12.6974468 C298.834213,12.5609425 298.834213,12.3393856 298.697361,12.2025313 L296.495126,9.9999125 L298.697361,7.79729367 C298.834213,7.6607894 298.834213,7.43923248 298.697361,7.3023782 C298.560859,7.16587393 298.339305,7.16587393 298.202453,7.3023782 L295.999869,9.50499703 L293.797284,7.3023782 C293.660782,7.16587393 293.439229,7.16587393 293.302377,7.3023782 Z" id="清除"></path>
                    </g>
                </g>
            </g>
        </g>
    </g>
</svg>