<?xml version="1.0" encoding="UTF-8"?>
<svg width="10px" height="10px" viewBox="0 0 10 10" version="1.1" xmlns="http://www.w3.org/2000/svg" xmlns:xlink="http://www.w3.org/1999/xlink">
    <!-- Generator: Sketch 61 (89581) - https://sketch.com -->
    <title>客户端-关闭-默认</title>
    <desc>Created with Sketch.</desc>
    <g id="页面-1" stroke="none" stroke-width="1" fill="none" fill-rule="evenodd">
        <g id="0-0登录注册-默认" transform="translate(-18.000000, -18.000000)" fill="#CCCCCC">
            <g id="导航" transform="translate(18.000000, 14.000000)">
                <g id="关闭-最小化" transform="translate(0.000000, 4.000000)">
                    <path d="M5.88415444,4.99984375 L9.81671589,1.06659583 C10.0610947,0.822838214 10.0610947,0.42720085 9.81671589,0.182818213 C9.57296208,-0.0609394044 9.1773309,-0.0609394044 8.93295208,0.182818213 L4.99976562,4.11606613 L1.06657917,0.182818213 C0.822825357,-0.0609394044 0.427194175,-0.0609394044 0.182815356,0.182818213 C-0.0609384522,0.42720085 -0.0609384522,0.822838214 0.182815356,1.06659583 L4.11600181,4.99984375 L0.182815356,8.93309166 C-0.0609384522,9.1774743 -0.0609384522,9.57311166 0.182815356,9.81686928 C0.304692261,9.93937311 0.464694761,10 0.624697261,10 C0.784699761,10 0.944702261,9.93937311 1.06657917,9.81686928 L4.99976562,5.88362136 L8.93295208,9.81686928 C9.05482898,9.93937311 9.21483148,10 9.37483398,10 C9.53483648,10 9.69483898,9.93937311 9.81671589,9.81686928 C10.0610947,9.57311166 10.0610947,9.1774743 9.81671589,8.93309166 L5.88415444,4.99984375 L5.88415444,4.99984375 Z" id="客户端-关闭-默认"></path>
                </g>
            </g>
        </g>
    </g>
</svg>