<?xml version="1.0" encoding="UTF-8"?>
<svg width="16px" height="18px" viewBox="0 0 16 18" version="1.1" xmlns="http://www.w3.org/2000/svg" xmlns:xlink="http://www.w3.org/1999/xlink">
    <!-- Generator: Sketch 61 (89581) - https://sketch.com -->
    <title>时长</title>
    <desc>Created with Sketch.</desc>
    <g id="页面-1" stroke="none" stroke-width="1" fill="none" fill-rule="evenodd">
        <g id="1-5预定会议" transform="translate(-41.000000, -310.000000)" fill="#999999">
            <g id="会议时长" transform="translate(30.000000, 272.000000)">
                <g id="日期" transform="translate(0.000000, 27.000000)">
                    <path d="M23.4445906,12.6363244 L14.5556894,12.6363244 L14.5556894,15.0909429 C14.5556894,17.3502283 16.5455437,19.1817899 19.0001921,19.1817899 L19.1930577,19.1777629 C21.5702838,19.0826252 23.4444864,17.2811223 23.4445906,15.0909429 L23.4445906,12.6363244 Z M19.0001921,20.8182101 C17.8213837,20.8182101 16.690909,21.249218 15.8574671,22.0163596 C15.0239471,22.7835732 14.5556894,23.8241428 14.5556894,24.9090571 L14.5556894,27.3636756 L23.4445906,27.3636756 L23.4445906,24.9090571 C23.4444864,22.7188777 21.5702838,20.9172789 19.1930577,20.8222371 L19.0001921,20.8182101 Z M26.1113234,11 C26.6021594,11 27,11.3663842 27,11.8181502 C27,12.2700361 26.6021594,12.6363244 26.1113234,12.6363244 L25.2223604,12.6363244 L25.2223604,15.0909429 C25.223376,17.10125 24.0785523,18.964644 22.2063809,19.9999401 C24.0789429,21.0349725 25.2238708,22.8986541 25.2223604,24.9090571 L25.2223604,27.3636756 L26.1113234,27.3636756 C26.6021594,27.3636756 27,27.7299879 27,28.1818258 C27,28.6336158 26.6021594,29 26.1113234,29 L11.8889565,29 C11.3981206,29 11.0002799,28.6336158 11.0002799,28.1818258 C11.0002799,27.7299879 11.3981206,27.3636756 11.8889565,27.3636756 L12.7779196,27.3636756 L12.7779196,24.9090571 C12.7769039,22.89875 13.9217277,21.03538 15.7938991,19.9999401 C13.9213371,18.9650275 12.7764091,17.1013459 12.7779196,15.0909429 L12.7779196,12.6363244 L11.8889565,12.6363244 C11.5713507,12.6364203 11.2778856,12.4804224 11.1190827,12.2273452 C10.9603058,11.9741482 10.9603058,11.6621763 11.1190827,11.4090751 C11.2778856,11.1559021 11.5713507,11 11.8889565,11 L26.1113234,11 Z" id="时长"></path>
                </g>
            </g>
        </g>
    </g>
</svg>