<?xml version="1.0" encoding="UTF-8"?>
<svg width="17px" height="18px" viewBox="0 0 17 18" version="1.1" xmlns="http://www.w3.org/2000/svg" xmlns:xlink="http://www.w3.org/1999/xlink">
    <!-- Generator: Sketch 62 (91390) - https://sketch.com -->
    <title>语言设置-默认</title>
    <desc>Created with Sketch.</desc>
    <defs>
        <polygon id="path-1" points="3.23325635e-06 0.0076552795 13.9912734 0.0076552795 13.9912734 15 3.23325635e-06 15"></polygon>
    </defs>
    <g id="页面-1" stroke="none" stroke-width="1" fill="none" fill-rule="evenodd">
        <g id="1-5-1首页-检查更新" transform="translate(-19.000000, -176.000000)">
            <g id="语言设置" transform="translate(10.000000, 171.000000)">
                <g id="语言设置-默认" transform="translate(9.000000, 5.000000)">
                    <path d="M17,15.3177447 C17,15.6929497 16.6752049,16 16.2780265,16 C15.8810112,16 15.5560856,15.6929497 15.5560856,15.3177447 L15.5560856,2.63377099 C15.5560856,1.94803248 15.0686809,1.36463381 14.4910826,1.36463381 L1.7219735,1.36463381 C1.32492559,1.36463381 1,1.05758349 1,0.682378553 C1,0.307050313 1.32492559,0 1.7219735,0 L14.4910826,0 C15.873737,0 17,1.18039129 17,2.63377099 L17,15.3177447 Z" id="Fill-1" fill="#999999"></path>
                    <g id="编组" transform="translate(0.000000, 3.000000)">
                        <mask id="mask-2" fill="white">
                            <use xlink:href="#path-1"></use>
                        </mask>
                        <g id="Clip-4"></g>
                        <path d="M9.74018799,11.6248602 L8.93501016,9.23271739 L5.21715335,9.23271739 L4.40845127,11.6248602 L3.00932425,11.6248602 L6.32645127,2.39299689 L7.07427113,2.39979814 L7.82218799,2.39299689 L11.139315,11.6248602 L9.74018799,11.6248602 Z M12.4203635,0.0076552795 L1.57091316,0.0076552795 C0.7084097,0.0076552795 3.23325635e-06,0.684798137 3.23325635e-06,1.51653727 L3.23325635e-06,13.4911335 C3.23325635e-06,14.3195807 0.704853118,15.0000155 1.57091316,15.0000155 L12.4203635,15.0000155 C13.2827376,15.0000155 13.9912734,14.3229658 13.9912734,13.4911335 L13.9912734,1.51653727 C13.9912734,0.688214286 13.2862619,0.0076552795 12.4203635,0.0076552795 L12.4203635,0.0076552795 Z" id="Fill-3" fill="#999999" mask="url(#mask-2)"></path>
                    </g>
                    <polygon id="Fill-5" fill="#999999" points="5.42998642 11 8.67791515 11 7.05395078 6.10135573"></polygon>
                </g>
            </g>
        </g>
    </g>
</svg>