<?xml version="1.0" encoding="UTF-8"?>
<svg width="70px" height="70px" viewBox="0 0 70 70" version="1.1" xmlns="http://www.w3.org/2000/svg" xmlns:xlink="http://www.w3.org/1999/xlink">
    <!-- Generator: Sketch 61 (89581) - https://sketch.com -->
    <title>网络监测-正常</title>
    <desc>Created with Sketch.</desc>
    <g id="页面-1" stroke="none" stroke-width="1" fill="none" fill-rule="evenodd">
        <g id="1-2-3首页-设置-代理设置-正常" transform="translate(-405.000000, -120.000000)">
            <g id="网络监测" transform="translate(335.000000, 120.000000)">
                <g id="网络监测-正常" transform="translate(70.000000, 0.000000)">
                    <path d="M70,35 C70,54.3300402 54.3300402,70 35,70 C15.6699598,70 0,54.3300402 0,35 C0,15.6699598 15.6699598,0 35,0 C54.3300402,0 70,15.6699598 70,35 L70,35 Z" id="1" fill="#E7F8E9"></path>
                    <path d="M35,0 C54.3300402,0 70,15.6699598 70,35 C70,54.3300402 54.3300402,70 35,70 C15.6699598,70 0,54.3300402 0,35 C0,15.6699598 15.6699598,0 35,0 Z M35,2 C16.7745336,2 2,16.7745336 2,35 C2,53.2254664 16.7745336,68 35,68 C53.2254664,68 68,53.2254664 68,35 C68,16.7745336 53.2254664,2 35,2 Z" id="2" fill="#15BE24"></path>
                    <path d="M30.3998958,45 C30.0608345,45 29.7356304,44.8711066 29.4959288,44.641351 L20.3742942,35.9034006 C20.1345926,35.6739274 20,35.3625852 20,35.0379336 C20,34.7131761 20.1345926,34.4019046 20.3742942,34.1722902 C20.6138484,33.9425699 20.9390525,33.8134647 21.2781138,33.8134647 C21.6169909,33.8134647 21.942195,33.9425699 22.1817492,34.1722902 L30.399601,42.0443147 L47.8182508,25.3585783 C48.057805,25.1289286 48.3828617,25 48.7218862,25 C49.0607632,25 49.3858567,25.1289286 49.6254109,25.3585783 C49.8652231,25.5881927 50,25.8995349 50,26.2243277 C50,26.548944 49.8652231,26.8604979 49.6254109,27.0899711 L31.3032363,44.641351 C31.0638295,44.8711066 30.7387729,45 30.3998958,45" id="Fill-1" stroke="#15BE24" fill="#15BE24"></path>
                </g>
            </g>
        </g>
    </g>
</svg>