<?xml version="1.0" encoding="UTF-8"?>
<svg width="70px" height="70px" viewBox="0 0 70 70" version="1.1" xmlns="http://www.w3.org/2000/svg" xmlns:xlink="http://www.w3.org/1999/xlink">
    <!-- Generator: Sketch 61 (89581) - https://sketch.com -->
    <title>网络监测-异常</title>
    <desc>Created with Sketch.</desc>
    <g id="页面-1" stroke="none" stroke-width="1" fill="none" fill-rule="evenodd">
        <g id="1-2-3首页-设置-代理设置-报错" transform="translate(-405.000000, -120.000000)">
            <g id="网络监测" transform="translate(335.000000, 120.000000)">
                <g id="网络监测-异常" transform="translate(70.000000, 0.000000)">
                    <path d="M70,35 C70,54.3300402 54.3300402,70 35,70 C15.6699598,70 0,54.3300402 0,35 C0,15.6699598 15.6699598,0 35,0 C54.3300402,0 70,15.6699598 70,35 L70,35 Z" id="1" fill="#FFF5E7"></path>
                    <path d="M35,0 C54.3300402,0 70,15.6699598 70,35 C70,54.3300402 54.3300402,70 35,70 C15.6699598,70 0,54.3300402 0,35 C0,15.6699598 15.6699598,0 35,0 Z M35,2 C16.7745336,2 2,16.7745336 2,35 C2,53.2254664 16.7745336,68 35,68 C53.2254664,68 68,53.2254664 68,35 C68,16.7745336 53.2254664,2 35,2 Z" id="2" fill="#FFA210"></path>
                    <path d="M35,44.9048818 C36.6569302,44.9048818 38,46.269174 38,47.9523963 C38,49.6355292 36.6569302,51 35,51 C33.3430698,51 32,49.6355292 32,47.9523963 C32,46.269174 33.3430698,44.9048818 35,44.9048818 Z M35,19 C36.6569302,19 38,20.3643815 38,22.0476037 L38,22.0476037 L38,38.8096475 C38,39.898492 37.4283538,40.9043896 36.4999561,41.4488565 C35.5719978,41.9932341 34.4283538,41.9932341 33.5000439,41.4488565 C32.5719978,40.9043896 32,39.898492 32,38.8096475 L32,38.8096475 L32,22.0476037 C32,20.3643815 33.3430698,19 35,19 Z" id="形状结合" fill="#FFA210"></path>
                </g>
            </g>
        </g>
    </g>
</svg>