<?xml version="1.0" encoding="UTF-8"?>
<svg width="16px" height="16px" viewBox="0 0 16 16" version="1.1" xmlns="http://www.w3.org/2000/svg" xmlns:xlink="http://www.w3.org/1999/xlink">
    <!-- Generator: Sketch 61 (89581) - https://sketch.com -->
    <title>搜索</title>
    <desc>Created with Sketch.</desc>
    <g id="页面-1" stroke="none" stroke-width="1" fill="none" fill-rule="evenodd">
        <g id="1-6-0历史会议" transform="translate(-58.000000, -50.000000)" fill="#CCCCCC">
            <g id="返回搜索" transform="translate(20.000000, 38.000000)">
                <g id="搜索" transform="translate(28.000000, 0.000000)">
                    <path d="M17.4090075,25.2208782 C15.8575386,25.2208782 14.3988979,24.6165342 13.3018034,23.5191823 C12.2047089,22.4218089 11.6005184,20.9627974 11.6005184,19.4109125 C11.6005184,17.8590276 12.2047089,16.4000377 13.3018034,15.3026642 C14.3988979,14.2052693 15.8575171,13.6009468 17.4090075,13.6009468 C18.960541,13.6009468 20.4191817,14.2052908 21.5162332,15.3026642 C22.6133277,16.4000161 23.2174967,17.8590276 23.2174967,19.4109125 C23.2174967,20.9628189 22.6133277,22.4218304 21.5162332,23.5191823 C20.4191602,24.6165342 18.960541,25.2208782 17.4090075,25.2208782 L17.4090075,25.2208782 Z M22.0549383,25.1900639 L24.6352843,27.7710228 C24.7826478,27.9184238 24.981793,27.9997633 25.1960401,28 C25.4123096,28 25.6134769,27.9174124 25.763422,27.7674292 C25.9157765,27.615036 25.999806,27.4138821 26,27.2010436 C26.0002147,26.9890875 25.917476,26.7894829 25.7670361,26.6390048 L23.1867117,24.0580028 L23.3431536,23.8490162 C24.3080943,22.5603443 24.8181226,21.0256956 24.8181226,19.4109125 C24.8181226,17.4313711 24.0474437,15.5703315 22.6480711,14.1706032 C21.248677,12.7708533 19.3880673,12 17.4090075,12 C15.4299908,12 13.5694241,12.7708533 12.1700515,14.1706032 C10.7706789,15.5703315 10,17.4313711 10,19.4109125 C10,21.3904539 10.7706789,23.2514935 12.1700515,24.6512649 C13.5694241,26.0509932 15.4299908,26.8218681 17.4090075,26.8218681 C19.0233803,26.8218681 20.5576819,26.31171 21.8460263,25.3465887 L22.0549383,25.1900639 Z"></path>
                </g>
            </g>
        </g>
    </g>
</svg>