<?xml version="1.0" encoding="UTF-8"?>
<svg width="16px" height="18px" viewBox="0 0 16 18" version="1.1" xmlns="http://www.w3.org/2000/svg" xmlns:xlink="http://www.w3.org/1999/xlink">
    <!-- Generator: Sketch 61 (89581) - https://sketch.com -->
    <title>设置</title>
    <desc>Created with Sketch.</desc>
    <g id="页面-1" stroke="none" stroke-width="1" fill="none" fill-rule="evenodd">
        <g id="0-0登录注册-默认" transform="translate(-334.000000, -40.000000)" fill="#666666">
            <g id="设置" transform="translate(334.000000, 40.000000)">
                <path d="M7.99807752,1.26094571 C7.76852713,1.26094571 7.54313178,1.32251138 7.34434109,1.43911734 L1.89413953,4.63804203 C1.4907907,4.87472154 1.24031008,5.31592644 1.24031008,5.78938004 L1.24031008,12.1874501 C1.24031008,12.6609352 1.4907907,13.1021401 1.89413953,13.3388196 L7.34424806,16.5377128 C7.54300775,16.6542872 7.76852713,16.7157898 7.99807752,16.7157898 C8.22734884,16.7157898 8.45336434,16.6542242 8.65187597,16.5377128 L14.1019845,13.3388196 C14.5052093,13.102014 14.7556899,12.6608091 14.7556899,12.1874501 L14.7556899,5.78938004 C14.7556899,5.31605254 14.5052093,4.87484764 14.1018605,4.63804203 L8.65187597,1.43911734 C8.45299225,1.32251138 8.2275969,1.26094571 7.99807752,1.26094571 M7.99807752,17.9767356 C7.55088372,17.9764834 7.11156589,17.8569142 6.72418605,17.6298494 L1.2739845,14.4307986 C0.488124031,13.9695447 0,13.110021 0,12.1874501 L0,5.78938004 C0,4.86696673 0.488124031,4.00731699 1.2739845,3.54603152 L6.72409302,0.347138354 C7.11082171,0.120073555 7.55134884,-3.58382326e-15 7.99807752,-3.58382326e-15 C8.44477519,-3.58382326e-15 8.88530233,0.120073555 9.27215504,0.347138354 L14.7221395,3.54603152 C15.508,4.00744308 15.996124,4.86709282 15.996124,5.78938004 L15.996124,12.1874501 C15.996124,13.1097688 15.508,13.9694186 14.7221395,14.4307986 L9.27203101,17.6297233 C8.88455814,17.8569142 8.44524031,17.9764834 7.99807752,17.9767356" id="Fill-1"></path>
                <path d="M7.99807752,7.47835377 C7.17891473,7.47835377 6.51258915,8.15576532 6.51258915,8.98830473 C6.51258915,9.82109632 7.17891473,10.4984764 7.99807752,10.4984764 C8.81699225,10.4984764 9.48328682,9.82109632 9.48328682,8.98830473 C9.48328682,8.15576532 8.81699225,7.47835377 7.99807752,7.47835377 M7.99807752,11.7594221 C6.49503876,11.7594221 5.27227907,10.5163503 5.27227907,8.98830473 C5.27227907,7.46051138 6.49503876,6.21740806 7.99807752,6.21740806 C9.50083721,6.21740806 10.7235969,7.46051138 10.7235969,8.98830473 C10.7235969,10.5163503 9.50083721,11.7594221 7.99807752,11.7594221" id="Fill-3"></path>
            </g>
        </g>
    </g>
</svg>