<?xml version="1.0" encoding="UTF-8"?>
<svg width="18px" height="18px" viewBox="0 0 18 18" version="1.1" xmlns="http://www.w3.org/2000/svg" xmlns:xlink="http://www.w3.org/1999/xlink">
    <!-- Generator: Sketch 61 (89581) - https://sketch.com -->
    <title>时间</title>
    <desc>Created with Sketch.</desc>
    <g id="页面-1" stroke="none" stroke-width="1" fill="none" fill-rule="evenodd">
        <g id="1-5预定会议" transform="translate(-210.000000, -223.000000)" fill="#999999">
            <g id="开始时间" transform="translate(30.000000, 185.000000)">
                <g id="时间" transform="translate(170.000000, 27.000000)">
                    <path d="M19,11 C14.0295455,11 10,15.0295455 10,20 C10,24.9704545 14.0295455,29 19,29 C23.9704545,29 28,24.9704545 28,20 C28,15.0295455 23.9704545,11 19,11 L19,11 Z M19,27.3636364 C14.9336364,27.3636364 11.6363636,24.0671818 11.6363636,20 C11.6363636,15.9336364 14.9336364,12.6363636 19,12.6363636 C23.0663636,12.6363636 26.3636364,15.9336364 26.3636364,20 C26.3636364,24.0671818 23.0663636,27.3636364 19,27.3636364 L19,27.3636364 Z M22.033,21.8760909 C22.3529091,22.196 22.3529091,22.7139091 22.033,23.033 C21.8734545,23.1925455 21.664,23.2727273 21.4545455,23.2727273 C21.2450909,23.2727273 21.0356364,23.1933636 20.8760909,23.033 L18.4215455,20.5784545 C18.2677273,20.4254545 18.1818182,20.2168182 18.1818182,20 L18.1818182,15.0909091 C18.1818182,14.6392727 18.5483636,14.2727273 19,14.2727273 C19.4516364,14.2727273 19.8181818,14.6392727 19.8181818,15.0909091 L19.8181818,19.6612727 L22.033,21.8760909 L22.033,21.8760909 Z"></path>
                </g>
            </g>
        </g>
    </g>
</svg>