<?xml version="1.0" encoding="UTF-8"?>
<svg width="18px" height="18px" viewBox="0 0 18 18" version="1.1" xmlns="http://www.w3.org/2000/svg" xmlns:xlink="http://www.w3.org/1999/xlink">
    <!-- Generator: Sketch 62 (91390) - https://sketch.com -->
    <title>检查更新-选中</title>
    <desc>Created with Sketch.</desc>
    <defs>
        <polygon id="path-1" points="0 0 18 0 18 18 0 18"></polygon>
    </defs>
    <g id="页面-1" stroke="none" stroke-width="1" fill="none" fill-rule="evenodd">
        <g id="1-5-1首页-检查更新" transform="translate(-18.000000, -217.000000)">
            <g id="检查更新" transform="translate(10.000000, 211.000000)">
                <g id="检查更新-选中" transform="translate(8.000000, 6.000000)">
                    <mask id="mask-2" fill="white">
                        <use xlink:href="#path-1"></use>
                    </mask>
                    <g id="Clip-2"></g>
                    <rect id="矩形" fill="#127BF8" mask="url(#mask-2)" x="0" y="0" width="18" height="18" rx="3"></rect>
                    <path d="M7.38722701,12.5762758 L7.06941188,13.3078196 C6.76254266,13.8202161 6.2858651,13.4103254 6.2858651,13.4103254 L4.69703771,10.8976632 C4.40091128,10.3817328 5.03284024,10.2050368 5.03284024,10.2050368 L7.80969409,9.51947813 C8.7991143,9.34631599 8.51382094,10.0672359 8.51382094,10.0672359 L8.18887404,10.7987797 C12.3920593,12.2370414 13.6776059,9.26501372 13.6776059,9.26501372 C12.5870771,14.4139811 7.38722701,12.5762758 7.38722701,12.5762758" id="路径" fill="#FFFFFF" mask="url(#mask-2)"></path>
                    <path d="M4.33593544,8.45930177 C5.55641596,3.46589321 10.6912902,5.37416648 10.6949012,5.37416648 L11.030794,4.66738224 C11.3449078,4.17965695 11.8179744,4.58965807 11.8179744,4.58965807 L13.3345813,7.07049283 C13.6162411,7.5793554 12.9807011,7.73833768 12.9807011,7.73833768 L10.1966252,8.3426382 C9.20359397,8.48757314 9.51048576,7.79494668 9.51048576,7.79494668 L9.84998959,7.08816244 C5.69729098,5.59322542 4.33593544,8.45930177 4.33593544,8.45930177" id="路径" fill="#FFFFFF" mask="url(#mask-2)"></path>
                </g>
            </g>
        </g>
    </g>
</svg>