<?xml version="1.0" standalone="no"?><!DOCTYPE svg PUBLIC "-//W3C//DTD SVG 1.1//EN" "http://www.w3.org/Graphics/SVG/1.1/DTD/svg11.dtd"><svg t="1621415828710" class="icon" viewBox="0 0 1024 1024" version="1.1" xmlns="http://www.w3.org/2000/svg" p-id="4848" xmlns:xlink="http://www.w3.org/1999/xlink" width="30" height="30"><defs><style type="text/css"></style></defs><path d="M783.108267 300.6464c0-69.44-56.635733-125.713067-126.506667-125.713067H169.1776C99.306667 174.933333 42.666667 231.2064 42.666667 300.6464v422.698667C42.666667 792.785067 99.306667 849.066667 169.173333 849.066667h487.428267c69.870933 0 126.506667-56.290133 126.506667-125.717334a14.0544 14.0544 0 0 1 18.0736-13.469866l106.7648 31.816533c27.0976 8.0768 55.616-7.342933 63.6928-34.4448a51.2 51.2 0 0 0 2.133333-14.621867V329.3696c0-28.2752-22.9248-51.2-51.2-51.2a51.2 51.2 0 0 0-14.626133 2.133333l-108.680534 32.388267a12.565333 12.565333 0 0 1-16.157866-12.0448zM311.466667 623.761067v-219.264c0-28.279467 22.9248-51.2 51.2-51.2a51.2 51.2 0 0 1 27.392 7.940266l173.1072 109.623467c23.893333 15.1296 30.993067 46.762667 15.863466 70.651733a51.2 51.2 0 0 1-15.8592 15.8592l-173.1072 109.6448c-23.889067 15.133867-55.517867 8.034133-70.651733-15.854933A51.2 51.2 0 0 1 311.466667 623.765333z" p-id="4849" fill="#127BF8"></path></svg>