<?xml version="1.0" encoding="UTF-8"?>
<svg width="71px" height="60px" viewBox="0 0 71 60" version="1.1" xmlns="http://www.w3.org/2000/svg" xmlns:xlink="http://www.w3.org/1999/xlink">
    <!-- Generator: Sketch 61 (89581) - https://sketch.com -->
    <title>LOGO-PC-客户端</title>
    <desc>Created with Sketch.</desc>
    <g id="页面-1" stroke="none" stroke-width="1" fill="none" fill-rule="evenodd">
        <g id="0-0登录注册-默认" transform="translate(-155.000000, -120.000000)" fill="#127BF8">
            <g id="logo" transform="translate(147.500000, 120.000000)">
                <path d="M57.5942488,13.7315819 C59.2648784,11.4542606 62.879591,13.16204 62.1438303,15.8811159 L62.1438303,15.8811159 L56.8952335,35.2819298 L76.3548635,42.6800503 C78.6732359,43.5610208 78.4989093,46.8657178 76.0993554,47.5021152 L76.0993554,47.5021152 L51.847454,53.9380232 L29.3490726,59.9076345 C27.0153185,60.5271065 25.1917259,57.8985819 26.6111201,55.963155 L26.6111201,55.963155 L45.0786269,30.7899114 Z M56.6512617,0.0923654628 C58.9841613,-0.527106543 60.8086085,2.10141812 59.3883597,4.036845 L59.3883597,4.036845 L40.9208529,29.2092423 L28.4060856,46.2675718 C26.735456,48.5448931 23.1207434,46.83796 23.8556495,44.1180378 L23.8556495,44.1180378 L29.1051009,24.717224 L9.64547085,17.3199497 C7.32624391,16.4389792 7.50142502,13.1342822 9.90097891,12.4978848 L9.90097891,12.4978848 L34.1528804,6.06197684 Z" id="LOGO-PC-客户端"></path>
            </g>
        </g>
    </g>
</svg>